<mxfile host="65bd71144e">
    <diagram id="qoaryiH7XQwexObJdcnE" name="Page-1">
        <mxGraphModel dx="1327" dy="957" grid="1" gridSize="10" guides="1" tooltips="1" connect="1" arrows="1" fold="1" page="1" pageScale="1" pageWidth="827" pageHeight="1169" math="0" shadow="0">
            <root>
                <mxCell id="0"/>
                <mxCell id="1" parent="0"/>
                <mxCell id="4" value="確認塔X 是否啟動&lt;br&gt;(X:1~8)" style="rhombus;whiteSpace=wrap;html=1;" parent="1" vertex="1">
                    <mxGeometry x="115" y="180" width="155" height="120" as="geometry"/>
                </mxCell>
                <mxCell id="85" style="edgeStyle=none;html=1;entryX=0.5;entryY=0;entryDx=0;entryDy=0;" edge="1" parent="1" source="9" target="17">
                    <mxGeometry relative="1" as="geometry"/>
                </mxCell>
                <mxCell id="9" value="致能對應的DOx&lt;br&gt;(x:4~11)" style="shape=parallelogram;perimeter=parallelogramPerimeter;whiteSpace=wrap;html=1;fixedSize=1;" parent="1" vertex="1">
                    <mxGeometry x="112" y="340" width="160" height="40" as="geometry"/>
                </mxCell>
                <mxCell id="10" value="" style="endArrow=classic;html=1;exitX=0.5;exitY=1;exitDx=0;exitDy=0;" parent="1" source="4" target="9" edge="1">
                    <mxGeometry width="50" height="50" relative="1" as="geometry">
                        <mxPoint x="278.75" y="360" as="sourcePoint"/>
                        <mxPoint x="198.75" y="380" as="targetPoint"/>
                    </mxGeometry>
                </mxCell>
                <mxCell id="12" value="X=X+1, if (X &amp;gt; 8) then X=1" style="rounded=0;whiteSpace=wrap;html=1;" parent="1" vertex="1">
                    <mxGeometry x="348.75" y="210" width="180" height="60" as="geometry"/>
                </mxCell>
                <mxCell id="13" value="" style="endArrow=classic;html=1;exitX=1;exitY=0.5;exitDx=0;exitDy=0;entryX=0;entryY=0.5;entryDx=0;entryDy=0;" parent="1" source="4" target="12" edge="1">
                    <mxGeometry width="50" height="50" relative="1" as="geometry">
                        <mxPoint x="278.75" y="350" as="sourcePoint"/>
                        <mxPoint x="328.75" y="300" as="targetPoint"/>
                    </mxGeometry>
                </mxCell>
                <mxCell id="14" value="" style="endArrow=classic;html=1;exitX=0.5;exitY=0;exitDx=0;exitDy=0;" parent="1" source="12" edge="1">
                    <mxGeometry width="50" height="50" relative="1" as="geometry">
                        <mxPoint x="278.75" y="350" as="sourcePoint"/>
                        <mxPoint x="192" y="150" as="targetPoint"/>
                        <Array as="points">
                            <mxPoint x="439" y="150"/>
                        </Array>
                    </mxGeometry>
                </mxCell>
                <mxCell id="15" value="&lt;font style=&quot;font-size: 15px&quot;&gt;是&lt;/font&gt;" style="text;html=1;strokeColor=none;fillColor=none;align=center;verticalAlign=middle;whiteSpace=wrap;rounded=0;" parent="1" vertex="1">
                    <mxGeometry x="152.5" y="300" width="20" height="20" as="geometry"/>
                </mxCell>
                <mxCell id="16" value="&lt;font style=&quot;font-size: 15px&quot;&gt;否&lt;/font&gt;" style="text;html=1;strokeColor=none;fillColor=none;align=center;verticalAlign=middle;whiteSpace=wrap;rounded=0;" parent="1" vertex="1">
                    <mxGeometry x="274.5" y="220" width="23.25" height="20" as="geometry"/>
                </mxCell>
                <mxCell id="86" style="edgeStyle=none;html=1;exitX=0.5;exitY=1;exitDx=0;exitDy=0;entryX=0.5;entryY=0;entryDx=0;entryDy=0;" edge="1" parent="1" source="17" target="72">
                    <mxGeometry relative="1" as="geometry"/>
                </mxCell>
                <mxCell id="17" value="致能DO2 水泵啟動" style="shape=parallelogram;perimeter=parallelogramPerimeter;whiteSpace=wrap;html=1;fixedSize=1;" parent="1" vertex="1">
                    <mxGeometry x="111" y="410" width="160" height="30" as="geometry"/>
                </mxCell>
                <mxCell id="23" value="確認水流DI0&lt;br&gt;&amp;nbsp;是否在&lt;br&gt;馬達保護時限內" style="rhombus;whiteSpace=wrap;html=1;" parent="1" vertex="1">
                    <mxGeometry x="121.38" y="638.75" width="141.25" height="100" as="geometry"/>
                </mxCell>
                <mxCell id="28" value="關閉水泵DO2 &lt;br&gt;並等待馬達降溫時間" style="rounded=0;whiteSpace=wrap;html=1;" parent="1" vertex="1">
                    <mxGeometry x="310" y="666.25" width="118" height="45" as="geometry"/>
                </mxCell>
                <mxCell id="30" value="&lt;font style=&quot;font-size: 15px&quot;&gt;否&lt;/font&gt;" style="text;html=1;strokeColor=none;fillColor=none;align=center;verticalAlign=middle;whiteSpace=wrap;rounded=0;" parent="1" vertex="1">
                    <mxGeometry x="257.5" y="638.75" width="25.75" height="20" as="geometry"/>
                </mxCell>
                <mxCell id="31" value="是否超過&lt;br&gt;重試次數" style="rhombus;whiteSpace=wrap;html=1;" parent="1" vertex="1">
                    <mxGeometry x="488.75" y="642.5" width="100" height="92.5" as="geometry"/>
                </mxCell>
                <mxCell id="32" value="" style="endArrow=classic;html=1;exitX=1;exitY=0.5;exitDx=0;exitDy=0;entryX=0;entryY=0.5;entryDx=0;entryDy=0;" parent="1" source="28" target="31" edge="1">
                    <mxGeometry width="50" height="50" relative="1" as="geometry">
                        <mxPoint x="458.75" y="722.5" as="sourcePoint"/>
                        <mxPoint x="508.75" y="672.5" as="targetPoint"/>
                    </mxGeometry>
                </mxCell>
                <mxCell id="34" value="&lt;font style=&quot;font-size: 15px&quot;&gt;是&lt;/font&gt;" style="text;html=1;strokeColor=none;fillColor=none;align=center;verticalAlign=middle;whiteSpace=wrap;rounded=0;" parent="1" vertex="1">
                    <mxGeometry x="602" y="663.75" width="20" height="18.75" as="geometry"/>
                </mxCell>
                <mxCell id="38" value="" style="endArrow=classic;html=1;exitX=0.5;exitY=0;exitDx=0;exitDy=0;" parent="1" source="31" edge="1">
                    <mxGeometry width="50" height="50" relative="1" as="geometry">
                        <mxPoint x="468.75" y="450" as="sourcePoint"/>
                        <mxPoint x="192" y="315" as="targetPoint"/>
                        <Array as="points">
                            <mxPoint x="539" y="315"/>
                        </Array>
                    </mxGeometry>
                </mxCell>
                <mxCell id="45" value="&lt;font style=&quot;font-size: 15px&quot;&gt;否&lt;/font&gt;" style="text;html=1;strokeColor=none;fillColor=none;align=center;verticalAlign=middle;whiteSpace=wrap;rounded=0;" parent="1" vertex="1">
                    <mxGeometry x="560" y="620" width="20" height="20" as="geometry"/>
                </mxCell>
                <mxCell id="46" value="TowerFailed = TowerFailed + 1" style="rounded=0;whiteSpace=wrap;html=1;" parent="1" vertex="1">
                    <mxGeometry x="592" y="395" width="120" height="60" as="geometry"/>
                </mxCell>
                <mxCell id="49" value="初始變數 X=1&lt;br&gt;TowerFailed=0" style="text;html=1;strokeColor=none;fillColor=none;align=center;verticalAlign=middle;whiteSpace=wrap;rounded=0;" parent="1" vertex="1">
                    <mxGeometry x="256.13" y="66" width="77.62" height="50" as="geometry"/>
                </mxCell>
                <mxCell id="50" value="&lt;span&gt;閥切換&lt;/span&gt;&lt;br&gt;&lt;span&gt;流程&lt;/span&gt;" style="ellipse;whiteSpace=wrap;html=1;aspect=fixed;" parent="1" vertex="1">
                    <mxGeometry x="151" y="50" width="82" height="82" as="geometry"/>
                </mxCell>
                <mxCell id="52" value="" style="endArrow=classic;html=1;exitX=0.5;exitY=1;exitDx=0;exitDy=0;entryX=0.5;entryY=0;entryDx=0;entryDy=0;" parent="1" source="50" target="4" edge="1">
                    <mxGeometry width="50" height="50" relative="1" as="geometry">
                        <mxPoint x="232" y="150" as="sourcePoint"/>
                        <mxPoint x="282" y="100" as="targetPoint"/>
                    </mxGeometry>
                </mxCell>
                <mxCell id="57" value="TowerFailed &amp;lt; 3" style="rhombus;whiteSpace=wrap;html=1;" parent="1" vertex="1">
                    <mxGeometry x="589.19" y="200" width="125.63" height="80" as="geometry"/>
                </mxCell>
                <mxCell id="hnti64KSn21kljfQmfNz-84" style="edgeStyle=none;html=1;exitX=0.5;exitY=1;exitDx=0;exitDy=0;entryX=0.5;entryY=0;entryDx=0;entryDy=0;" parent="1" source="58" target="hnti64KSn21kljfQmfNz-82" edge="1">
                    <mxGeometry relative="1" as="geometry">
                        <mxPoint x="192.5" y="840" as="sourcePoint"/>
                    </mxGeometry>
                </mxCell>
                <mxCell id="58" value="TowerFailed = 0" style="rounded=1;whiteSpace=wrap;html=1;" parent="1" vertex="1">
                    <mxGeometry x="137.5" y="785" width="110" height="30" as="geometry"/>
                </mxCell>
                <mxCell id="59" value="" style="endArrow=classic;html=1;exitX=0.5;exitY=1;exitDx=0;exitDy=0;" parent="1" source="23" target="58" edge="1">
                    <mxGeometry width="50" height="50" relative="1" as="geometry">
                        <mxPoint x="262" y="795" as="sourcePoint"/>
                        <mxPoint x="312" y="745" as="targetPoint"/>
                    </mxGeometry>
                </mxCell>
                <mxCell id="61" value="" style="endArrow=classic;html=1;entryX=0.5;entryY=1;entryDx=0;entryDy=0;exitX=1;exitY=0.5;exitDx=0;exitDy=0;" parent="1" source="31" target="46" edge="1">
                    <mxGeometry width="50" height="50" relative="1" as="geometry">
                        <mxPoint x="612" y="590" as="sourcePoint"/>
                        <mxPoint x="332" y="290" as="targetPoint"/>
                        <Array as="points">
                            <mxPoint x="652" y="690"/>
                        </Array>
                    </mxGeometry>
                </mxCell>
                <mxCell id="62" value="" style="endArrow=classic;html=1;exitX=0.5;exitY=0;exitDx=0;exitDy=0;entryX=0.5;entryY=1;entryDx=0;entryDy=0;" parent="1" source="46" target="57" edge="1">
                    <mxGeometry width="50" height="50" relative="1" as="geometry">
                        <mxPoint x="282" y="340" as="sourcePoint"/>
                        <mxPoint x="332" y="290" as="targetPoint"/>
                    </mxGeometry>
                </mxCell>
                <mxCell id="63" value="" style="endArrow=classic;html=1;exitX=0;exitY=0.5;exitDx=0;exitDy=0;entryX=1;entryY=0.5;entryDx=0;entryDy=0;" parent="1" source="57" target="12" edge="1">
                    <mxGeometry width="50" height="50" relative="1" as="geometry">
                        <mxPoint x="392" y="270" as="sourcePoint"/>
                        <mxPoint x="442" y="220" as="targetPoint"/>
                    </mxGeometry>
                </mxCell>
                <mxCell id="65" value="" style="endArrow=classic;html=1;exitX=0.5;exitY=0;exitDx=0;exitDy=0;entryX=0.5;entryY=1;entryDx=0;entryDy=0;" parent="1" source="57" target="69" edge="1">
                    <mxGeometry width="50" height="50" relative="1" as="geometry">
                        <mxPoint x="654.82" y="200" as="sourcePoint"/>
                        <mxPoint x="644.8200000000002" y="130" as="targetPoint"/>
                    </mxGeometry>
                </mxCell>
                <mxCell id="66" value="&lt;font style=&quot;font-size: 15px&quot;&gt;是&lt;/font&gt;" style="text;html=1;strokeColor=none;fillColor=none;align=center;verticalAlign=middle;whiteSpace=wrap;rounded=0;" parent="1" vertex="1">
                    <mxGeometry x="568.75" y="220" width="20" height="18.75" as="geometry"/>
                </mxCell>
                <mxCell id="67" value="&lt;font style=&quot;font-size: 15px&quot;&gt;否&lt;/font&gt;" style="text;html=1;strokeColor=none;fillColor=none;align=center;verticalAlign=middle;whiteSpace=wrap;rounded=0;" parent="1" vertex="1">
                    <mxGeometry x="662" y="180" width="20" height="20" as="geometry"/>
                </mxCell>
                <mxCell id="68" value="關閉流程" style="shape=offPageConnector;whiteSpace=wrap;html=1;" parent="1" vertex="1">
                    <mxGeometry x="151" y="1040" width="80" height="80" as="geometry"/>
                </mxCell>
                <mxCell id="69" value="&lt;span&gt;告警程序&lt;/span&gt;" style="shape=offPageConnector;whiteSpace=wrap;html=1;" parent="1" vertex="1">
                    <mxGeometry x="612.0099999999999" y="50" width="80" height="80" as="geometry"/>
                </mxCell>
                <mxCell id="87" style="edgeStyle=none;html=1;exitX=0.5;exitY=1;exitDx=0;exitDy=0;entryX=0.5;entryY=0;entryDx=0;entryDy=0;" edge="1" parent="1" source="72" target="23">
                    <mxGeometry relative="1" as="geometry"/>
                </mxCell>
                <mxCell id="72" value="偵測DI1&lt;br&gt;水泵啟動" style="rhombus;whiteSpace=wrap;html=1;" parent="1" vertex="1">
                    <mxGeometry x="141.18999999999994" y="490" width="99.62" height="80" as="geometry"/>
                </mxCell>
                <mxCell id="80" value="" style="endArrow=classic;html=1;exitX=1;exitY=0.5;exitDx=0;exitDy=0;" parent="1" source="72" edge="1">
                    <mxGeometry width="50" height="50" relative="1" as="geometry">
                        <mxPoint x="391.94" y="510" as="sourcePoint"/>
                        <mxPoint x="191" y="470" as="targetPoint"/>
                        <Array as="points">
                            <mxPoint x="322" y="530"/>
                            <mxPoint x="321.94" y="470"/>
                        </Array>
                    </mxGeometry>
                </mxCell>
                <mxCell id="81" value="&lt;font style=&quot;font-size: 15px&quot;&gt;是&lt;/font&gt;" style="text;html=1;strokeColor=none;fillColor=none;align=center;verticalAlign=middle;whiteSpace=wrap;rounded=0;" parent="1" vertex="1">
                    <mxGeometry x="167.82" y="580" width="20" height="18.75" as="geometry"/>
                </mxCell>
                <mxCell id="82" value="&lt;font style=&quot;font-size: 15px&quot;&gt;否&lt;/font&gt;" style="text;html=1;strokeColor=none;fillColor=none;align=center;verticalAlign=middle;whiteSpace=wrap;rounded=0;" parent="1" vertex="1">
                    <mxGeometry x="256.13" y="510" width="20" height="20" as="geometry"/>
                </mxCell>
                <mxCell id="hnti64KSn21kljfQmfNz-85" style="edgeStyle=none;html=1;exitX=0.5;exitY=1;exitDx=0;exitDy=0;" parent="1" source="hnti64KSn21kljfQmfNz-82" target="68" edge="1">
                    <mxGeometry relative="1" as="geometry"/>
                </mxCell>
                <mxCell id="83" style="edgeStyle=none;html=1;" parent="1" source="hnti64KSn21kljfQmfNz-82" edge="1">
                    <mxGeometry relative="1" as="geometry">
                        <mxPoint x="190" y="850" as="targetPoint"/>
                        <Array as="points">
                            <mxPoint x="60" y="935"/>
                            <mxPoint x="60" y="850"/>
                        </Array>
                    </mxGeometry>
                </mxCell>
                <mxCell id="hnti64KSn21kljfQmfNz-82" value="&lt;span&gt;計時直到&lt;br&gt;(除垢分 - 閥切換)&lt;/span&gt;" style="rhombus;whiteSpace=wrap;html=1;" parent="1" vertex="1">
                    <mxGeometry x="127.5" y="875" width="130" height="120" as="geometry"/>
                </mxCell>
                <mxCell id="hnti64KSn21kljfQmfNz-88" value="&lt;font style=&quot;font-size: 15px&quot;&gt;是&lt;/font&gt;" style="text;html=1;strokeColor=none;fillColor=none;align=center;verticalAlign=middle;whiteSpace=wrap;rounded=0;" parent="1" vertex="1">
                    <mxGeometry x="160" y="755" width="20" height="18.75" as="geometry"/>
                </mxCell>
                <mxCell id="hnti64KSn21kljfQmfNz-89" value="&lt;font style=&quot;font-size: 15px&quot;&gt;是&lt;/font&gt;" style="text;html=1;strokeColor=none;fillColor=none;align=center;verticalAlign=middle;whiteSpace=wrap;rounded=0;" parent="1" vertex="1">
                    <mxGeometry x="160" y="995" width="20" height="18.75" as="geometry"/>
                </mxCell>
                <mxCell id="84" value="&lt;font style=&quot;font-size: 15px&quot;&gt;否&lt;/font&gt;" style="text;html=1;strokeColor=none;fillColor=none;align=center;verticalAlign=middle;whiteSpace=wrap;rounded=0;" parent="1" vertex="1">
                    <mxGeometry x="80" y="915" width="25.75" height="20" as="geometry"/>
                </mxCell>
                <mxCell id="1ycaAuJnIfZC9fkmGcYM-88" value="" style="endArrow=classic;html=1;exitX=1;exitY=0.5;exitDx=0;exitDy=0;entryX=0;entryY=0.5;entryDx=0;entryDy=0;" edge="1" parent="1" source="23" target="28">
                    <mxGeometry width="50" height="50" relative="1" as="geometry">
                        <mxPoint x="450" y="740" as="sourcePoint"/>
                        <mxPoint x="330" y="690" as="targetPoint"/>
                    </mxGeometry>
                </mxCell>
            </root>
        </mxGraphModel>
    </diagram>
    <diagram id="jp7KO9oscNKnHJoGTT8j" name="Page-2">
        <mxGraphModel grid="1" gridSize="10" guides="1" tooltips="1" connect="1" arrows="1" page="1" fold="1" pageScale="1" pageWidth="827" pageHeight="1169" math="0" shadow="0">
            <root>
                <mxCell id="qQ1xCwC4UgJjY_IGuyYh-0"/>
                <mxCell id="qQ1xCwC4UgJjY_IGuyYh-1" parent="qQ1xCwC4UgJjY_IGuyYh-0"/>
                <mxCell id="5MekKqMdhLfREWUdFrrC-1" style="edgeStyle=none;html=1;exitX=0.5;exitY=1;exitDx=0;exitDy=0;entryX=0.5;entryY=0;entryDx=0;entryDy=0;" parent="qQ1xCwC4UgJjY_IGuyYh-1" source="KCbngF4Z9nnxXBN3XVd2-0" target="2yXNfHr_qZ2uo7SxEz7s-0" edge="1">
                    <mxGeometry relative="1" as="geometry"/>
                </mxCell>
                <mxCell id="KCbngF4Z9nnxXBN3XVd2-0" value="關閉流程" style="ellipse;whiteSpace=wrap;html=1;aspect=fixed;" parent="qQ1xCwC4UgJjY_IGuyYh-1" vertex="1">
                    <mxGeometry x="136" y="140" width="70" height="70" as="geometry"/>
                </mxCell>
                <mxCell id="5MekKqMdhLfREWUdFrrC-2" style="edgeStyle=none;html=1;entryX=0.5;entryY=0;entryDx=0;entryDy=0;" parent="qQ1xCwC4UgJjY_IGuyYh-1" source="2yXNfHr_qZ2uo7SxEz7s-0" target="L-3iimT9PrzEz7Dlih2V-0" edge="1">
                    <mxGeometry relative="1" as="geometry"/>
                </mxCell>
                <mxCell id="2yXNfHr_qZ2uo7SxEz7s-0" value="關閉 DO2 水泵啟動" style="shape=parallelogram;perimeter=parallelogramPerimeter;whiteSpace=wrap;html=1;fixedSize=1;" parent="qQ1xCwC4UgJjY_IGuyYh-1" vertex="1">
                    <mxGeometry x="91" y="240" width="160" height="30" as="geometry"/>
                </mxCell>
                <mxCell id="5MekKqMdhLfREWUdFrrC-3" style="edgeStyle=none;html=1;entryX=0.5;entryY=0;entryDx=0;entryDy=0;" parent="qQ1xCwC4UgJjY_IGuyYh-1" source="L-3iimT9PrzEz7Dlih2V-0" target="5MekKqMdhLfREWUdFrrC-0" edge="1">
                    <mxGeometry relative="1" as="geometry"/>
                </mxCell>
                <mxCell id="L-3iimT9PrzEz7Dlih2V-0" value="關閉的對應的DOx&lt;br&gt;(x:4~11)" style="shape=parallelogram;perimeter=parallelogramPerimeter;whiteSpace=wrap;html=1;fixedSize=1;" parent="qQ1xCwC4UgJjY_IGuyYh-1" vertex="1">
                    <mxGeometry x="91" y="300" width="160" height="50" as="geometry"/>
                </mxCell>
                <mxCell id="LpUxhCSQkQqCLLKZDYEr-1" style="edgeStyle=none;html=1;entryX=0.5;entryY=0;entryDx=0;entryDy=0;" parent="qQ1xCwC4UgJjY_IGuyYh-1" source="5MekKqMdhLfREWUdFrrC-0" target="LpUxhCSQkQqCLLKZDYEr-0" edge="1">
                    <mxGeometry relative="1" as="geometry"/>
                </mxCell>
                <mxCell id="5MekKqMdhLfREWUdFrrC-0" value="X = X+1" style="rounded=1;whiteSpace=wrap;html=1;" parent="qQ1xCwC4UgJjY_IGuyYh-1" vertex="1">
                    <mxGeometry x="111" y="380" width="120" height="60" as="geometry"/>
                </mxCell>
                <mxCell id="LpUxhCSQkQqCLLKZDYEr-0" value="回到閥切換流程" style="shape=offPageConnector;whiteSpace=wrap;html=1;" parent="qQ1xCwC4UgJjY_IGuyYh-1" vertex="1">
                    <mxGeometry x="131" y="480" width="80" height="80" as="geometry"/>
                </mxCell>
                <mxCell id="RXFNE2XlroU70ZMGYCTU-4" style="edgeStyle=none;html=1;entryX=0.5;entryY=0;entryDx=0;entryDy=0;" edge="1" parent="qQ1xCwC4UgJjY_IGuyYh-1" source="RXFNE2XlroU70ZMGYCTU-0" target="RXFNE2XlroU70ZMGYCTU-1">
                    <mxGeometry relative="1" as="geometry"/>
                </mxCell>
                <mxCell id="RXFNE2XlroU70ZMGYCTU-0" value="告警程序" style="ellipse;whiteSpace=wrap;html=1;aspect=fixed;" vertex="1" parent="qQ1xCwC4UgJjY_IGuyYh-1">
                    <mxGeometry x="346" y="140" width="70" height="70" as="geometry"/>
                </mxCell>
                <mxCell id="RXFNE2XlroU70ZMGYCTU-5" style="edgeStyle=none;html=1;entryX=0.5;entryY=0;entryDx=0;entryDy=0;" edge="1" parent="qQ1xCwC4UgJjY_IGuyYh-1" source="RXFNE2XlroU70ZMGYCTU-1" target="RXFNE2XlroU70ZMGYCTU-2">
                    <mxGeometry relative="1" as="geometry"/>
                </mxCell>
                <mxCell id="RXFNE2XlroU70ZMGYCTU-1" value="致能 DO3 電極啟動" style="shape=parallelogram;perimeter=parallelogramPerimeter;whiteSpace=wrap;html=1;fixedSize=1;" vertex="1" parent="qQ1xCwC4UgJjY_IGuyYh-1">
                    <mxGeometry x="301" y="250" width="160" height="30" as="geometry"/>
                </mxCell>
                <mxCell id="RXFNE2XlroU70ZMGYCTU-7" style="edgeStyle=none;html=1;entryX=0.5;entryY=0;entryDx=0;entryDy=0;" edge="1" parent="qQ1xCwC4UgJjY_IGuyYh-1" source="RXFNE2XlroU70ZMGYCTU-2" target="RXFNE2XlroU70ZMGYCTU-6">
                    <mxGeometry relative="1" as="geometry"/>
                </mxCell>
                <mxCell id="RXFNE2XlroU70ZMGYCTU-2" value="填 9 到 NBIOT的 &lt;br&gt;R22 暫存器&lt;br&gt;表示水流異常" style="shape=parallelogram;perimeter=parallelogramPerimeter;whiteSpace=wrap;html=1;fixedSize=1;" vertex="1" parent="qQ1xCwC4UgJjY_IGuyYh-1">
                    <mxGeometry x="301" y="310" width="160" height="60" as="geometry"/>
                </mxCell>
                <mxCell id="RXFNE2XlroU70ZMGYCTU-6" value="系統故障&lt;br&gt;停止閥切換程序與排水流程" style="ellipse;whiteSpace=wrap;html=1;aspect=fixed;" vertex="1" parent="qQ1xCwC4UgJjY_IGuyYh-1">
                    <mxGeometry x="320" y="440" width="120" height="120" as="geometry"/>
                </mxCell>
                <mxCell id="RXFNE2XlroU70ZMGYCTU-10" style="edgeStyle=none;html=1;exitX=0.5;exitY=1;exitDx=0;exitDy=0;entryX=0;entryY=0.5;entryDx=0;entryDy=0;" edge="1" parent="qQ1xCwC4UgJjY_IGuyYh-1" source="RXFNE2XlroU70ZMGYCTU-8" target="RXFNE2XlroU70ZMGYCTU-9">
                    <mxGeometry relative="1" as="geometry"/>
                </mxCell>
                <mxCell id="RXFNE2XlroU70ZMGYCTU-8" value="排水流程" style="ellipse;whiteSpace=wrap;html=1;aspect=fixed;" vertex="1" parent="qQ1xCwC4UgJjY_IGuyYh-1">
                    <mxGeometry x="576" y="140" width="80" height="80" as="geometry"/>
                </mxCell>
                <mxCell id="RXFNE2XlroU70ZMGYCTU-11" style="edgeStyle=none;html=1;exitX=0.5;exitY=0;exitDx=0;exitDy=0;" edge="1" parent="qQ1xCwC4UgJjY_IGuyYh-1" source="RXFNE2XlroU70ZMGYCTU-9">
                    <mxGeometry relative="1" as="geometry">
                        <mxPoint x="616" y="240" as="targetPoint"/>
                        <Array as="points">
                            <mxPoint x="736" y="340"/>
                            <mxPoint x="736" y="240"/>
                        </Array>
                    </mxGeometry>
                </mxCell>
                <mxCell id="bMjGRwzqXr2FntMLOEcH-3" style="edgeStyle=none;html=1;exitX=1;exitY=0.5;exitDx=0;exitDy=0;" edge="1" parent="qQ1xCwC4UgJjY_IGuyYh-1" source="RXFNE2XlroU70ZMGYCTU-9" target="bMjGRwzqXr2FntMLOEcH-2">
                    <mxGeometry relative="1" as="geometry"/>
                </mxCell>
                <mxCell id="RXFNE2XlroU70ZMGYCTU-9" value="讀取EC &lt;br&gt;&amp;nbsp;與PH感測器&lt;br&gt;&amp;nbsp;判斷是否吻合&lt;br&gt;觸發條件" style="rhombus;whiteSpace=wrap;html=1;direction=south;" vertex="1" parent="qQ1xCwC4UgJjY_IGuyYh-1">
                    <mxGeometry x="551" y="275" width="130" height="130" as="geometry"/>
                </mxCell>
                <mxCell id="4POk4cvm0Ku78wRr5-PL-0" value="&lt;font style=&quot;font-size: 15px&quot;&gt;是&lt;/font&gt;" style="text;html=1;strokeColor=none;fillColor=none;align=center;verticalAlign=middle;whiteSpace=wrap;rounded=0;" vertex="1" parent="qQ1xCwC4UgJjY_IGuyYh-1">
                    <mxGeometry x="586" y="411.25" width="20" height="18.75" as="geometry"/>
                </mxCell>
                <mxCell id="bMjGRwzqXr2FntMLOEcH-0" value="&lt;font style=&quot;font-size: 15px&quot;&gt;否&lt;/font&gt;" style="text;html=1;strokeColor=none;fillColor=none;align=center;verticalAlign=middle;whiteSpace=wrap;rounded=0;" vertex="1" parent="qQ1xCwC4UgJjY_IGuyYh-1">
                    <mxGeometry x="686" y="315" width="20" height="20" as="geometry"/>
                </mxCell>
                <mxCell id="YUXvTTrp2GGquEGGMhv_-0" style="edgeStyle=none;html=1;entryX=0;entryY=0.5;entryDx=0;entryDy=0;" edge="1" parent="qQ1xCwC4UgJjY_IGuyYh-1" source="bMjGRwzqXr2FntMLOEcH-2" target="bMjGRwzqXr2FntMLOEcH-4">
                    <mxGeometry relative="1" as="geometry"/>
                </mxCell>
                <mxCell id="bMjGRwzqXr2FntMLOEcH-2" value="致能 DO0 排水閥" style="shape=parallelogram;perimeter=parallelogramPerimeter;whiteSpace=wrap;html=1;fixedSize=1;" vertex="1" parent="qQ1xCwC4UgJjY_IGuyYh-1">
                    <mxGeometry x="536" y="455" width="160" height="30" as="geometry"/>
                </mxCell>
                <mxCell id="YUXvTTrp2GGquEGGMhv_-2" style="edgeStyle=none;html=1;entryX=0.5;entryY=0;entryDx=0;entryDy=0;" edge="1" parent="qQ1xCwC4UgJjY_IGuyYh-1" source="bMjGRwzqXr2FntMLOEcH-4" target="YUXvTTrp2GGquEGGMhv_-1">
                    <mxGeometry relative="1" as="geometry"/>
                </mxCell>
                <mxCell id="YUXvTTrp2GGquEGGMhv_-4" style="edgeStyle=none;html=1;exitX=0.5;exitY=0;exitDx=0;exitDy=0;" edge="1" parent="qQ1xCwC4UgJjY_IGuyYh-1" source="bMjGRwzqXr2FntMLOEcH-4">
                    <mxGeometry relative="1" as="geometry">
                        <mxPoint x="616" y="500" as="targetPoint"/>
                        <Array as="points">
                            <mxPoint x="706" y="570"/>
                            <mxPoint x="706" y="500"/>
                        </Array>
                    </mxGeometry>
                </mxCell>
                <mxCell id="bMjGRwzqXr2FntMLOEcH-4" value="開始計時&lt;br&gt;直到滿足&lt;br&gt;啟動排液" style="rhombus;whiteSpace=wrap;html=1;direction=south;" vertex="1" parent="qQ1xCwC4UgJjY_IGuyYh-1">
                    <mxGeometry x="558.5" y="520" width="115" height="100" as="geometry"/>
                </mxCell>
                <mxCell id="5qEA4CY68jnpEHYs1rMQ-1" value="" style="edgeStyle=none;html=1;" edge="1" parent="qQ1xCwC4UgJjY_IGuyYh-1" source="YUXvTTrp2GGquEGGMhv_-1" target="5qEA4CY68jnpEHYs1rMQ-0">
                    <mxGeometry relative="1" as="geometry"/>
                </mxCell>
                <mxCell id="YUXvTTrp2GGquEGGMhv_-1" value="關閉 DO0 排水閥" style="shape=parallelogram;perimeter=parallelogramPerimeter;whiteSpace=wrap;html=1;fixedSize=1;" vertex="1" parent="qQ1xCwC4UgJjY_IGuyYh-1">
                    <mxGeometry x="536" y="660" width="160" height="30" as="geometry"/>
                </mxCell>
                <mxCell id="YUXvTTrp2GGquEGGMhv_-5" value="&lt;font style=&quot;font-size: 15px&quot;&gt;否&lt;/font&gt;" style="text;html=1;strokeColor=none;fillColor=none;align=center;verticalAlign=middle;whiteSpace=wrap;rounded=0;" vertex="1" parent="qQ1xCwC4UgJjY_IGuyYh-1">
                    <mxGeometry x="673.5" y="550" width="20" height="20" as="geometry"/>
                </mxCell>
                <mxCell id="YUXvTTrp2GGquEGGMhv_-6" value="&lt;font style=&quot;font-size: 15px&quot;&gt;是&lt;/font&gt;" style="text;html=1;strokeColor=none;fillColor=none;align=center;verticalAlign=middle;whiteSpace=wrap;rounded=0;" vertex="1" parent="qQ1xCwC4UgJjY_IGuyYh-1">
                    <mxGeometry x="586" y="620" width="20" height="18.75" as="geometry"/>
                </mxCell>
                <mxCell id="YUXvTTrp2GGquEGGMhv_-11" value="" style="edgeStyle=none;html=1;" edge="1" parent="qQ1xCwC4UgJjY_IGuyYh-1" source="YUXvTTrp2GGquEGGMhv_-8" target="YUXvTTrp2GGquEGGMhv_-10">
                    <mxGeometry relative="1" as="geometry"/>
                </mxCell>
                <mxCell id="YUXvTTrp2GGquEGGMhv_-8" value="數據上傳流程" style="ellipse;whiteSpace=wrap;html=1;aspect=fixed;" vertex="1" parent="qQ1xCwC4UgJjY_IGuyYh-1">
                    <mxGeometry x="136" y="650" width="80" height="80" as="geometry"/>
                </mxCell>
                <mxCell id="YUXvTTrp2GGquEGGMhv_-14" style="edgeStyle=none;html=1;" edge="1" parent="qQ1xCwC4UgJjY_IGuyYh-1" source="YUXvTTrp2GGquEGGMhv_-10" target="YUXvTTrp2GGquEGGMhv_-12">
                    <mxGeometry relative="1" as="geometry"/>
                </mxCell>
                <mxCell id="YUXvTTrp2GGquEGGMhv_-16" style="edgeStyle=none;html=1;exitX=1;exitY=0.5;exitDx=0;exitDy=0;" edge="1" parent="qQ1xCwC4UgJjY_IGuyYh-1" source="YUXvTTrp2GGquEGGMhv_-10">
                    <mxGeometry relative="1" as="geometry">
                        <mxPoint x="176" y="750" as="targetPoint"/>
                        <Array as="points">
                            <mxPoint x="296" y="820"/>
                            <mxPoint x="296" y="750"/>
                        </Array>
                    </mxGeometry>
                </mxCell>
                <mxCell id="YUXvTTrp2GGquEGGMhv_-10" value="計時15分鐘&lt;br&gt;直到時間到達" style="rhombus;whiteSpace=wrap;html=1;" vertex="1" parent="qQ1xCwC4UgJjY_IGuyYh-1">
                    <mxGeometry x="116" y="770" width="120" height="100" as="geometry"/>
                </mxCell>
                <mxCell id="YUXvTTrp2GGquEGGMhv_-15" style="edgeStyle=none;html=1;" edge="1" parent="qQ1xCwC4UgJjY_IGuyYh-1" source="YUXvTTrp2GGquEGGMhv_-12">
                    <mxGeometry relative="1" as="geometry">
                        <mxPoint x="296" y="810" as="targetPoint"/>
                        <Array as="points">
                            <mxPoint x="176" y="1030"/>
                            <mxPoint x="296" y="1030"/>
                        </Array>
                    </mxGeometry>
                </mxCell>
                <mxCell id="YUXvTTrp2GGquEGGMhv_-12" value="對NBIOT的MODBUS&lt;br&gt;寫入對應資料" style="shape=parallelogram;perimeter=parallelogramPerimeter;whiteSpace=wrap;html=1;fixedSize=1;" vertex="1" parent="qQ1xCwC4UgJjY_IGuyYh-1">
                    <mxGeometry x="101" y="900" width="150" height="60" as="geometry"/>
                </mxCell>
                <mxCell id="YUXvTTrp2GGquEGGMhv_-17" value="&lt;font style=&quot;font-size: 15px&quot;&gt;是&lt;/font&gt;" style="text;html=1;strokeColor=none;fillColor=none;align=center;verticalAlign=middle;whiteSpace=wrap;rounded=0;" vertex="1" parent="qQ1xCwC4UgJjY_IGuyYh-1">
                    <mxGeometry x="146" y="870" width="20" height="18.75" as="geometry"/>
                </mxCell>
                <mxCell id="YUXvTTrp2GGquEGGMhv_-18" value="&lt;font style=&quot;font-size: 15px&quot;&gt;否&lt;/font&gt;" style="text;html=1;strokeColor=none;fillColor=none;align=center;verticalAlign=middle;whiteSpace=wrap;rounded=0;" vertex="1" parent="qQ1xCwC4UgJjY_IGuyYh-1">
                    <mxGeometry x="236" y="800" width="20" height="20" as="geometry"/>
                </mxCell>
                <mxCell id="5qEA4CY68jnpEHYs1rMQ-2" style="edgeStyle=none;html=1;" edge="1" parent="qQ1xCwC4UgJjY_IGuyYh-1" source="5qEA4CY68jnpEHYs1rMQ-0">
                    <mxGeometry relative="1" as="geometry">
                        <mxPoint x="736" y="325" as="targetPoint"/>
                        <Array as="points">
                            <mxPoint x="616" y="880"/>
                            <mxPoint x="736" y="880"/>
                        </Array>
                    </mxGeometry>
                </mxCell>
                <mxCell id="5qEA4CY68jnpEHYs1rMQ-3" style="edgeStyle=none;html=1;exitX=0.5;exitY=0;exitDx=0;exitDy=0;" edge="1" parent="qQ1xCwC4UgJjY_IGuyYh-1" source="5qEA4CY68jnpEHYs1rMQ-0">
                    <mxGeometry relative="1" as="geometry">
                        <mxPoint x="616" y="710" as="targetPoint"/>
                        <Array as="points">
                            <mxPoint x="710" y="790"/>
                            <mxPoint x="710" y="710"/>
                        </Array>
                    </mxGeometry>
                </mxCell>
                <mxCell id="5qEA4CY68jnpEHYs1rMQ-0" value="開始計時&lt;br&gt;直到&lt;br&gt;清洗等待時間&lt;br&gt;滿足" style="rhombus;whiteSpace=wrap;html=1;direction=south;" vertex="1" parent="qQ1xCwC4UgJjY_IGuyYh-1">
                    <mxGeometry x="558.5" y="740" width="115" height="100" as="geometry"/>
                </mxCell>
                <mxCell id="5qEA4CY68jnpEHYs1rMQ-4" value="&lt;font style=&quot;font-size: 15px&quot;&gt;是&lt;/font&gt;" style="text;html=1;strokeColor=none;fillColor=none;align=center;verticalAlign=middle;whiteSpace=wrap;rounded=0;" vertex="1" parent="qQ1xCwC4UgJjY_IGuyYh-1">
                    <mxGeometry x="586" y="850" width="20" height="18.75" as="geometry"/>
                </mxCell>
                <mxCell id="5qEA4CY68jnpEHYs1rMQ-5" value="&lt;font style=&quot;font-size: 15px&quot;&gt;否&lt;/font&gt;" style="text;html=1;strokeColor=none;fillColor=none;align=center;verticalAlign=middle;whiteSpace=wrap;rounded=0;" vertex="1" parent="qQ1xCwC4UgJjY_IGuyYh-1">
                    <mxGeometry x="676" y="760" width="20" height="20" as="geometry"/>
                </mxCell>
            </root>
        </mxGraphModel>
    </diagram>
    <diagram id="CEcQNTyztYr61VmtLQ5v" name="Page-4">
        <mxGraphModel dx="929" dy="670" grid="1" gridSize="10" guides="1" tooltips="1" connect="1" arrows="1" fold="1" page="1" pageScale="1" pageWidth="827" pageHeight="1169" math="0" shadow="0">
            <root>
                <mxCell id="M5g4fH2AyUE6sfYHV7MQ-0"/>
                <mxCell id="M5g4fH2AyUE6sfYHV7MQ-1" parent="M5g4fH2AyUE6sfYHV7MQ-0"/>
                <mxCell id="5tSBrO0XzwdxSMD32h3m-8" style="edgeStyle=none;html=1;entryX=1;entryY=0.5;entryDx=0;entryDy=0;" parent="M5g4fH2AyUE6sfYHV7MQ-1" source="y7j75FxIgrSPrHf_Hx4F-0" target="5tSBrO0XzwdxSMD32h3m-1" edge="1">
                    <mxGeometry relative="1" as="geometry"/>
                </mxCell>
                <mxCell id="y7j75FxIgrSPrHf_Hx4F-0" value="切換程序" style="ellipse;whiteSpace=wrap;html=1;aspect=fixed;" parent="M5g4fH2AyUE6sfYHV7MQ-1" vertex="1">
                    <mxGeometry x="430.75" y="50" width="70" height="70" as="geometry"/>
                </mxCell>
                <mxCell id="IkQplom1TR2c6xosdE-5-0" value="確認塔X 是否啟動&lt;br&gt;(X:1~8)" style="rhombus;whiteSpace=wrap;html=1;" parent="M5g4fH2AyUE6sfYHV7MQ-1" vertex="1">
                    <mxGeometry x="205" y="180" width="155" height="120" as="geometry"/>
                </mxCell>
                <mxCell id="IkQplom1TR2c6xosdE-5-1" value="致能對應的DOx&lt;br&gt;(x:4~11)" style="shape=parallelogram;perimeter=parallelogramPerimeter;whiteSpace=wrap;html=1;fixedSize=1;" parent="M5g4fH2AyUE6sfYHV7MQ-1" vertex="1">
                    <mxGeometry x="202" y="340" width="160" height="40" as="geometry"/>
                </mxCell>
                <mxCell id="IkQplom1TR2c6xosdE-5-2" value="" style="endArrow=classic;html=1;exitX=0.5;exitY=1;exitDx=0;exitDy=0;" parent="M5g4fH2AyUE6sfYHV7MQ-1" source="IkQplom1TR2c6xosdE-5-0" target="IkQplom1TR2c6xosdE-5-1" edge="1">
                    <mxGeometry width="50" height="50" relative="1" as="geometry">
                        <mxPoint x="368.75" y="360" as="sourcePoint"/>
                        <mxPoint x="288.75" y="380" as="targetPoint"/>
                    </mxGeometry>
                </mxCell>
                <mxCell id="IkQplom1TR2c6xosdE-5-3" value="X=X+1,&lt;br&gt;&amp;nbsp;if (X &amp;gt; 8) then X=1" style="rounded=0;whiteSpace=wrap;html=1;" parent="M5g4fH2AyUE6sfYHV7MQ-1" vertex="1">
                    <mxGeometry x="430.75" y="210" width="129.25" height="60" as="geometry"/>
                </mxCell>
                <mxCell id="IkQplom1TR2c6xosdE-5-4" value="" style="endArrow=classic;html=1;exitX=1;exitY=0.5;exitDx=0;exitDy=0;entryX=0;entryY=0.5;entryDx=0;entryDy=0;" parent="M5g4fH2AyUE6sfYHV7MQ-1" source="IkQplom1TR2c6xosdE-5-0" target="IkQplom1TR2c6xosdE-5-3" edge="1">
                    <mxGeometry width="50" height="50" relative="1" as="geometry">
                        <mxPoint x="368.75" y="350" as="sourcePoint"/>
                        <mxPoint x="418.75" y="300" as="targetPoint"/>
                    </mxGeometry>
                </mxCell>
                <mxCell id="IkQplom1TR2c6xosdE-5-5" value="" style="endArrow=classic;html=1;exitX=0.5;exitY=0;exitDx=0;exitDy=0;" parent="M5g4fH2AyUE6sfYHV7MQ-1" source="IkQplom1TR2c6xosdE-5-3" edge="1">
                    <mxGeometry width="50" height="50" relative="1" as="geometry">
                        <mxPoint x="368.75" y="350" as="sourcePoint"/>
                        <mxPoint x="282" y="150" as="targetPoint"/>
                        <Array as="points">
                            <mxPoint x="495" y="150"/>
                        </Array>
                    </mxGeometry>
                </mxCell>
                <mxCell id="IkQplom1TR2c6xosdE-5-6" value="&lt;font style=&quot;font-size: 15px&quot;&gt;是&lt;/font&gt;" style="text;html=1;strokeColor=none;fillColor=none;align=center;verticalAlign=middle;whiteSpace=wrap;rounded=0;" parent="M5g4fH2AyUE6sfYHV7MQ-1" vertex="1">
                    <mxGeometry x="250" y="300" width="20" height="20" as="geometry"/>
                </mxCell>
                <mxCell id="IkQplom1TR2c6xosdE-5-7" value="&lt;font style=&quot;font-size: 15px&quot;&gt;否&lt;/font&gt;" style="text;html=1;strokeColor=none;fillColor=none;align=center;verticalAlign=middle;whiteSpace=wrap;rounded=0;" parent="M5g4fH2AyUE6sfYHV7MQ-1" vertex="1">
                    <mxGeometry x="364.5" y="220" width="23.25" height="20" as="geometry"/>
                </mxCell>
                <mxCell id="IkQplom1TR2c6xosdE-5-8" value="致能DO2 水泵啟動" style="shape=parallelogram;perimeter=parallelogramPerimeter;whiteSpace=wrap;html=1;fixedSize=1;" parent="M5g4fH2AyUE6sfYHV7MQ-1" vertex="1">
                    <mxGeometry x="202" y="590" width="160" height="30" as="geometry"/>
                </mxCell>
                <mxCell id="IkQplom1TR2c6xosdE-5-9" value="確認水流DI0&lt;br&gt;&amp;nbsp;是否在&lt;br&gt;馬達保護時限內" style="rhombus;whiteSpace=wrap;html=1;" parent="M5g4fH2AyUE6sfYHV7MQ-1" vertex="1">
                    <mxGeometry x="211.38" y="655" width="141.25" height="100" as="geometry"/>
                </mxCell>
                <mxCell id="IkQplom1TR2c6xosdE-5-10" value="關閉水泵DO2 &lt;br&gt;並等待馬達降溫時間" style="rounded=0;whiteSpace=wrap;html=1;" parent="M5g4fH2AyUE6sfYHV7MQ-1" vertex="1">
                    <mxGeometry x="406.75" y="682.5" width="118" height="45" as="geometry"/>
                </mxCell>
                <mxCell id="IkQplom1TR2c6xosdE-5-11" value="" style="endArrow=classic;html=1;entryX=0;entryY=0.5;entryDx=0;entryDy=0;" parent="M5g4fH2AyUE6sfYHV7MQ-1" source="IkQplom1TR2c6xosdE-5-9" target="IkQplom1TR2c6xosdE-5-10" edge="1">
                    <mxGeometry width="50" height="50" relative="1" as="geometry">
                        <mxPoint x="358.75" y="751.25" as="sourcePoint"/>
                        <mxPoint x="429.46067811865476" y="701.25" as="targetPoint"/>
                    </mxGeometry>
                </mxCell>
                <mxCell id="IkQplom1TR2c6xosdE-5-12" value="&lt;font style=&quot;font-size: 15px&quot;&gt;否&lt;/font&gt;" style="text;html=1;strokeColor=none;fillColor=none;align=center;verticalAlign=middle;whiteSpace=wrap;rounded=0;" parent="M5g4fH2AyUE6sfYHV7MQ-1" vertex="1">
                    <mxGeometry x="352.63" y="682.5" width="25.75" height="20" as="geometry"/>
                </mxCell>
                <mxCell id="IkQplom1TR2c6xosdE-5-13" value="是否超過&lt;br&gt;重試次數" style="rhombus;whiteSpace=wrap;html=1;" parent="M5g4fH2AyUE6sfYHV7MQ-1" vertex="1">
                    <mxGeometry x="570" y="658.75" width="100" height="92.5" as="geometry"/>
                </mxCell>
                <mxCell id="IkQplom1TR2c6xosdE-5-14" value="" style="endArrow=classic;html=1;exitX=1;exitY=0.5;exitDx=0;exitDy=0;entryX=0;entryY=0.5;entryDx=0;entryDy=0;" parent="M5g4fH2AyUE6sfYHV7MQ-1" source="IkQplom1TR2c6xosdE-5-10" target="IkQplom1TR2c6xosdE-5-13" edge="1">
                    <mxGeometry width="50" height="50" relative="1" as="geometry">
                        <mxPoint x="548.75" y="741.25" as="sourcePoint"/>
                        <mxPoint x="598.75" y="691.25" as="targetPoint"/>
                    </mxGeometry>
                </mxCell>
                <mxCell id="IkQplom1TR2c6xosdE-5-15" value="&lt;font style=&quot;font-size: 15px&quot;&gt;是&lt;/font&gt;" style="text;html=1;strokeColor=none;fillColor=none;align=center;verticalAlign=middle;whiteSpace=wrap;rounded=0;" parent="M5g4fH2AyUE6sfYHV7MQ-1" vertex="1">
                    <mxGeometry x="692" y="682.5" width="20" height="18.75" as="geometry"/>
                </mxCell>
                <mxCell id="IkQplom1TR2c6xosdE-5-16" value="" style="endArrow=classic;html=1;exitX=0.5;exitY=0;exitDx=0;exitDy=0;" parent="M5g4fH2AyUE6sfYHV7MQ-1" source="IkQplom1TR2c6xosdE-5-13" edge="1">
                    <mxGeometry width="50" height="50" relative="1" as="geometry">
                        <mxPoint x="558.75" y="450" as="sourcePoint"/>
                        <mxPoint x="282" y="315" as="targetPoint"/>
                        <Array as="points">
                            <mxPoint x="620" y="640"/>
                            <mxPoint x="480" y="640"/>
                            <mxPoint x="480" y="315"/>
                        </Array>
                    </mxGeometry>
                </mxCell>
                <mxCell id="IkQplom1TR2c6xosdE-5-17" value="&lt;font style=&quot;font-size: 15px&quot;&gt;否&lt;/font&gt;" style="text;html=1;strokeColor=none;fillColor=none;align=center;verticalAlign=middle;whiteSpace=wrap;rounded=0;" parent="M5g4fH2AyUE6sfYHV7MQ-1" vertex="1">
                    <mxGeometry x="590" y="620" width="20" height="20" as="geometry"/>
                </mxCell>
                <mxCell id="IkQplom1TR2c6xosdE-5-18" value="TowerFailed = TowerFailed + 1" style="rounded=0;whiteSpace=wrap;html=1;" parent="M5g4fH2AyUE6sfYHV7MQ-1" vertex="1">
                    <mxGeometry x="623.25" y="395" width="120" height="60" as="geometry"/>
                </mxCell>
                <mxCell id="IkQplom1TR2c6xosdE-5-21" value="" style="endArrow=classic;html=1;exitX=0.5;exitY=1;exitDx=0;exitDy=0;entryX=0.5;entryY=0;entryDx=0;entryDy=0;" parent="M5g4fH2AyUE6sfYHV7MQ-1" source="5tSBrO0XzwdxSMD32h3m-1" target="IkQplom1TR2c6xosdE-5-0" edge="1">
                    <mxGeometry width="50" height="50" relative="1" as="geometry">
                        <mxPoint x="282" y="132.0000000000001" as="sourcePoint"/>
                        <mxPoint x="372" y="100" as="targetPoint"/>
                    </mxGeometry>
                </mxCell>
                <mxCell id="IkQplom1TR2c6xosdE-5-22" value="TowerFailed &amp;lt; 3" style="rhombus;whiteSpace=wrap;html=1;" parent="M5g4fH2AyUE6sfYHV7MQ-1" vertex="1">
                    <mxGeometry x="620.44" y="200" width="125.63" height="80" as="geometry"/>
                </mxCell>
                <mxCell id="IkQplom1TR2c6xosdE-5-23" style="edgeStyle=none;html=1;exitX=0.5;exitY=1;exitDx=0;exitDy=0;entryX=0.5;entryY=0;entryDx=0;entryDy=0;" parent="M5g4fH2AyUE6sfYHV7MQ-1" source="IkQplom1TR2c6xosdE-5-24" target="IkQplom1TR2c6xosdE-5-42" edge="1">
                    <mxGeometry relative="1" as="geometry">
                        <mxPoint x="282.5" y="840" as="sourcePoint"/>
                    </mxGeometry>
                </mxCell>
                <mxCell id="IkQplom1TR2c6xosdE-5-24" value="TowerFailed = 0" style="rounded=1;whiteSpace=wrap;html=1;" parent="M5g4fH2AyUE6sfYHV7MQ-1" vertex="1">
                    <mxGeometry x="227.5" y="785" width="110" height="30" as="geometry"/>
                </mxCell>
                <mxCell id="IkQplom1TR2c6xosdE-5-25" value="" style="endArrow=classic;html=1;exitX=0.5;exitY=1;exitDx=0;exitDy=0;" parent="M5g4fH2AyUE6sfYHV7MQ-1" source="IkQplom1TR2c6xosdE-5-9" target="IkQplom1TR2c6xosdE-5-24" edge="1">
                    <mxGeometry width="50" height="50" relative="1" as="geometry">
                        <mxPoint x="352" y="795" as="sourcePoint"/>
                        <mxPoint x="402" y="745" as="targetPoint"/>
                    </mxGeometry>
                </mxCell>
                <mxCell id="IkQplom1TR2c6xosdE-5-26" value="" style="endArrow=classic;html=1;entryX=0.5;entryY=1;entryDx=0;entryDy=0;exitX=1;exitY=0.5;exitDx=0;exitDy=0;" parent="M5g4fH2AyUE6sfYHV7MQ-1" source="IkQplom1TR2c6xosdE-5-13" target="IkQplom1TR2c6xosdE-5-18" edge="1">
                    <mxGeometry width="50" height="50" relative="1" as="geometry">
                        <mxPoint x="702" y="590" as="sourcePoint"/>
                        <mxPoint x="422" y="290" as="targetPoint"/>
                        <Array as="points">
                            <mxPoint x="683" y="705"/>
                        </Array>
                    </mxGeometry>
                </mxCell>
                <mxCell id="IkQplom1TR2c6xosdE-5-27" value="" style="endArrow=classic;html=1;exitX=0.5;exitY=0;exitDx=0;exitDy=0;entryX=0.5;entryY=1;entryDx=0;entryDy=0;" parent="M5g4fH2AyUE6sfYHV7MQ-1" source="IkQplom1TR2c6xosdE-5-18" target="IkQplom1TR2c6xosdE-5-22" edge="1">
                    <mxGeometry width="50" height="50" relative="1" as="geometry">
                        <mxPoint x="313.25" y="340" as="sourcePoint"/>
                        <mxPoint x="363.25" y="290" as="targetPoint"/>
                    </mxGeometry>
                </mxCell>
                <mxCell id="IkQplom1TR2c6xosdE-5-28" value="" style="endArrow=classic;html=1;exitX=0;exitY=0.5;exitDx=0;exitDy=0;entryX=1;entryY=0.5;entryDx=0;entryDy=0;" parent="M5g4fH2AyUE6sfYHV7MQ-1" source="IkQplom1TR2c6xosdE-5-22" target="IkQplom1TR2c6xosdE-5-3" edge="1">
                    <mxGeometry width="50" height="50" relative="1" as="geometry">
                        <mxPoint x="482" y="270" as="sourcePoint"/>
                        <mxPoint x="532" y="220" as="targetPoint"/>
                    </mxGeometry>
                </mxCell>
                <mxCell id="IkQplom1TR2c6xosdE-5-29" value="" style="endArrow=classic;html=1;exitX=0.5;exitY=0;exitDx=0;exitDy=0;entryX=0.5;entryY=1;entryDx=0;entryDy=0;" parent="M5g4fH2AyUE6sfYHV7MQ-1" source="IkQplom1TR2c6xosdE-5-22" target="IkQplom1TR2c6xosdE-5-33" edge="1">
                    <mxGeometry width="50" height="50" relative="1" as="geometry">
                        <mxPoint x="686.07" y="200" as="sourcePoint"/>
                        <mxPoint x="676.0700000000002" y="130" as="targetPoint"/>
                    </mxGeometry>
                </mxCell>
                <mxCell id="IkQplom1TR2c6xosdE-5-30" value="&lt;font style=&quot;font-size: 15px&quot;&gt;是&lt;/font&gt;" style="text;html=1;strokeColor=none;fillColor=none;align=center;verticalAlign=middle;whiteSpace=wrap;rounded=0;" parent="M5g4fH2AyUE6sfYHV7MQ-1" vertex="1">
                    <mxGeometry x="600" y="220" width="20" height="18.75" as="geometry"/>
                </mxCell>
                <mxCell id="IkQplom1TR2c6xosdE-5-31" value="&lt;font style=&quot;font-size: 15px&quot;&gt;否&lt;/font&gt;" style="text;html=1;strokeColor=none;fillColor=none;align=center;verticalAlign=middle;whiteSpace=wrap;rounded=0;" parent="M5g4fH2AyUE6sfYHV7MQ-1" vertex="1">
                    <mxGeometry x="693.25" y="180" width="20" height="20" as="geometry"/>
                </mxCell>
                <mxCell id="IkQplom1TR2c6xosdE-5-33" value="&lt;span&gt;告警程序&lt;/span&gt;" style="shape=offPageConnector;whiteSpace=wrap;html=1;" parent="M5g4fH2AyUE6sfYHV7MQ-1" vertex="1">
                    <mxGeometry x="643.2599999999999" y="50" width="80" height="80" as="geometry"/>
                </mxCell>
                <mxCell id="IkQplom1TR2c6xosdE-5-34" style="edgeStyle=none;html=1;exitX=0.5;exitY=1;exitDx=0;exitDy=0;entryX=0.5;entryY=0;entryDx=0;entryDy=0;" parent="M5g4fH2AyUE6sfYHV7MQ-1" source="IkQplom1TR2c6xosdE-5-35" target="IkQplom1TR2c6xosdE-5-8" edge="1">
                    <mxGeometry relative="1" as="geometry"/>
                </mxCell>
                <mxCell id="IkQplom1TR2c6xosdE-5-35" value="偵測DI1&lt;br&gt;水泵啟動" style="rhombus;whiteSpace=wrap;html=1;" parent="M5g4fH2AyUE6sfYHV7MQ-1" vertex="1">
                    <mxGeometry x="232.18" y="450" width="99.62" height="80" as="geometry"/>
                </mxCell>
                <mxCell id="IkQplom1TR2c6xosdE-5-36" value="" style="endArrow=classic;html=1;exitX=0.5;exitY=1;exitDx=0;exitDy=0;entryX=0.5;entryY=0;entryDx=0;entryDy=0;" parent="M5g4fH2AyUE6sfYHV7MQ-1" source="IkQplom1TR2c6xosdE-5-1" target="IkQplom1TR2c6xosdE-5-35" edge="1">
                    <mxGeometry width="50" height="50" relative="1" as="geometry">
                        <mxPoint x="394.12" y="460" as="sourcePoint"/>
                        <mxPoint x="444.12" y="410" as="targetPoint"/>
                    </mxGeometry>
                </mxCell>
                <mxCell id="IkQplom1TR2c6xosdE-5-37" value="" style="endArrow=classic;html=1;exitX=0.5;exitY=1;exitDx=0;exitDy=0;entryX=0.5;entryY=0;entryDx=0;entryDy=0;" parent="M5g4fH2AyUE6sfYHV7MQ-1" source="IkQplom1TR2c6xosdE-5-8" target="IkQplom1TR2c6xosdE-5-9" edge="1">
                    <mxGeometry width="50" height="50" relative="1" as="geometry">
                        <mxPoint x="474.12" y="735" as="sourcePoint"/>
                        <mxPoint x="524.12" y="685" as="targetPoint"/>
                    </mxGeometry>
                </mxCell>
                <mxCell id="IkQplom1TR2c6xosdE-5-38" value="" style="endArrow=classic;html=1;exitX=1;exitY=0.5;exitDx=0;exitDy=0;" parent="M5g4fH2AyUE6sfYHV7MQ-1" source="IkQplom1TR2c6xosdE-5-35" edge="1">
                    <mxGeometry width="50" height="50" relative="1" as="geometry">
                        <mxPoint x="474.12" y="460" as="sourcePoint"/>
                        <mxPoint x="282.1199999999999" y="420" as="targetPoint"/>
                        <Array as="points">
                            <mxPoint x="404.12" y="490"/>
                            <mxPoint x="404.12" y="420"/>
                        </Array>
                    </mxGeometry>
                </mxCell>
                <mxCell id="IkQplom1TR2c6xosdE-5-39" value="&lt;font style=&quot;font-size: 15px&quot;&gt;是&lt;/font&gt;" style="text;html=1;strokeColor=none;fillColor=none;align=center;verticalAlign=middle;whiteSpace=wrap;rounded=0;" parent="M5g4fH2AyUE6sfYHV7MQ-1" vertex="1">
                    <mxGeometry x="250" y="530" width="20" height="18.75" as="geometry"/>
                </mxCell>
                <mxCell id="IkQplom1TR2c6xosdE-5-40" value="&lt;font style=&quot;font-size: 15px&quot;&gt;否&lt;/font&gt;" style="text;html=1;strokeColor=none;fillColor=none;align=center;verticalAlign=middle;whiteSpace=wrap;rounded=0;" parent="M5g4fH2AyUE6sfYHV7MQ-1" vertex="1">
                    <mxGeometry x="337.5" y="470" width="20" height="20" as="geometry"/>
                </mxCell>
                <mxCell id="baRDWtBosmWGpMrJBEyP-2" value="" style="edgeStyle=none;html=1;" parent="M5g4fH2AyUE6sfYHV7MQ-1" source="IkQplom1TR2c6xosdE-5-42" target="baRDWtBosmWGpMrJBEyP-0" edge="1">
                    <mxGeometry relative="1" as="geometry"/>
                </mxCell>
                <mxCell id="5ED_ykXkErISyTF5sU5d-0" style="edgeStyle=none;html=1;exitX=0;exitY=0.5;exitDx=0;exitDy=0;" parent="M5g4fH2AyUE6sfYHV7MQ-1" source="IkQplom1TR2c6xosdE-5-42" edge="1">
                    <mxGeometry relative="1" as="geometry">
                        <mxPoint x="283" y="635" as="targetPoint"/>
                        <Array as="points">
                            <mxPoint x="160" y="935"/>
                            <mxPoint x="160" y="635"/>
                        </Array>
                    </mxGeometry>
                </mxCell>
                <mxCell id="IkQplom1TR2c6xosdE-5-42" value="&lt;span&gt;計時直到&lt;br&gt;(除垢分 - 閥切換)&lt;/span&gt;" style="rhombus;whiteSpace=wrap;html=1;" parent="M5g4fH2AyUE6sfYHV7MQ-1" vertex="1">
                    <mxGeometry x="217.5" y="875" width="130" height="120" as="geometry"/>
                </mxCell>
                <mxCell id="IkQplom1TR2c6xosdE-5-44" value="&lt;font style=&quot;font-size: 15px&quot;&gt;否&lt;/font&gt;" style="text;html=1;strokeColor=none;fillColor=none;align=center;verticalAlign=middle;whiteSpace=wrap;rounded=0;" parent="M5g4fH2AyUE6sfYHV7MQ-1" vertex="1">
                    <mxGeometry x="195" y="910" width="25.75" height="20" as="geometry"/>
                </mxCell>
                <mxCell id="IkQplom1TR2c6xosdE-5-45" value="&lt;font style=&quot;font-size: 15px&quot;&gt;是&lt;/font&gt;" style="text;html=1;strokeColor=none;fillColor=none;align=center;verticalAlign=middle;whiteSpace=wrap;rounded=0;" parent="M5g4fH2AyUE6sfYHV7MQ-1" vertex="1">
                    <mxGeometry x="250" y="755" width="20" height="18.75" as="geometry"/>
                </mxCell>
                <mxCell id="IkQplom1TR2c6xosdE-5-46" value="&lt;font style=&quot;font-size: 15px&quot;&gt;是&lt;/font&gt;" style="text;html=1;strokeColor=none;fillColor=none;align=center;verticalAlign=middle;whiteSpace=wrap;rounded=0;" parent="M5g4fH2AyUE6sfYHV7MQ-1" vertex="1">
                    <mxGeometry x="250" y="995" width="20" height="18.75" as="geometry"/>
                </mxCell>
                <mxCell id="5tSBrO0XzwdxSMD32h3m-9" style="edgeStyle=none;html=1;exitX=0;exitY=0.5;exitDx=0;exitDy=0;entryX=0.5;entryY=0;entryDx=0;entryDy=0;" parent="M5g4fH2AyUE6sfYHV7MQ-1" source="5tSBrO0XzwdxSMD32h3m-1" target="5tSBrO0XzwdxSMD32h3m-7" edge="1">
                    <mxGeometry relative="1" as="geometry">
                        <mxPoint x="120" y="85" as="targetPoint"/>
                        <Array as="points">
                            <mxPoint x="115" y="85"/>
                        </Array>
                    </mxGeometry>
                </mxCell>
                <mxCell id="5tSBrO0XzwdxSMD32h3m-1" value="Let Y=X&lt;br&gt;then X = X+1" style="rounded=1;whiteSpace=wrap;html=1;" parent="M5g4fH2AyUE6sfYHV7MQ-1" vertex="1">
                    <mxGeometry x="222.5" y="55" width="120" height="60" as="geometry"/>
                </mxCell>
                <mxCell id="5tSBrO0XzwdxSMD32h3m-16" style="edgeStyle=none;html=1;entryX=0.5;entryY=0;entryDx=0;entryDy=0;" parent="M5g4fH2AyUE6sfYHV7MQ-1" source="5tSBrO0XzwdxSMD32h3m-7" target="5tSBrO0XzwdxSMD32h3m-12" edge="1">
                    <mxGeometry relative="1" as="geometry"/>
                </mxCell>
                <mxCell id="5tSBrO0XzwdxSMD32h3m-18" style="edgeStyle=none;html=1;exitX=1;exitY=0.5;exitDx=0;exitDy=0;" parent="M5g4fH2AyUE6sfYHV7MQ-1" source="5tSBrO0XzwdxSMD32h3m-7" edge="1">
                    <mxGeometry relative="1" as="geometry">
                        <mxPoint x="115" y="160" as="targetPoint"/>
                        <Array as="points">
                            <mxPoint x="190" y="235"/>
                            <mxPoint x="190" y="160"/>
                        </Array>
                    </mxGeometry>
                </mxCell>
                <mxCell id="5tSBrO0XzwdxSMD32h3m-7" value="確認到達&lt;br&gt;閥切換時間" style="rhombus;whiteSpace=wrap;html=1;" parent="M5g4fH2AyUE6sfYHV7MQ-1" vertex="1">
                    <mxGeometry x="60" y="190" width="110" height="90" as="geometry"/>
                </mxCell>
                <mxCell id="5tSBrO0XzwdxSMD32h3m-10" value="同時並行處理" style="text;html=1;strokeColor=none;fillColor=none;align=center;verticalAlign=middle;whiteSpace=wrap;rounded=0;" parent="M5g4fH2AyUE6sfYHV7MQ-1" vertex="1">
                    <mxGeometry x="115" y="60" width="90" height="20" as="geometry"/>
                </mxCell>
                <mxCell id="5tSBrO0XzwdxSMD32h3m-17" style="edgeStyle=none;html=1;entryX=0.5;entryY=0;entryDx=0;entryDy=0;" parent="M5g4fH2AyUE6sfYHV7MQ-1" source="5tSBrO0XzwdxSMD32h3m-12" target="5tSBrO0XzwdxSMD32h3m-13" edge="1">
                    <mxGeometry relative="1" as="geometry"/>
                </mxCell>
                <mxCell id="5tSBrO0XzwdxSMD32h3m-12" value="關閉對應的DOy&lt;br&gt;(y:4~11)" style="shape=parallelogram;perimeter=parallelogramPerimeter;whiteSpace=wrap;html=1;fixedSize=1;" parent="M5g4fH2AyUE6sfYHV7MQ-1" vertex="1">
                    <mxGeometry x="35" y="340" width="160" height="40" as="geometry"/>
                </mxCell>
                <mxCell id="5tSBrO0XzwdxSMD32h3m-13" value="終止" style="ellipse;whiteSpace=wrap;html=1;aspect=fixed;" parent="M5g4fH2AyUE6sfYHV7MQ-1" vertex="1">
                    <mxGeometry x="75" y="430" width="80" height="80" as="geometry"/>
                </mxCell>
                <mxCell id="5tSBrO0XzwdxSMD32h3m-19" value="&lt;font style=&quot;font-size: 15px&quot;&gt;否&lt;/font&gt;" style="text;html=1;strokeColor=none;fillColor=none;align=center;verticalAlign=middle;whiteSpace=wrap;rounded=0;" parent="M5g4fH2AyUE6sfYHV7MQ-1" vertex="1">
                    <mxGeometry x="160" y="200" width="23.25" height="20" as="geometry"/>
                </mxCell>
                <mxCell id="5tSBrO0XzwdxSMD32h3m-20" value="&lt;font style=&quot;font-size: 15px&quot;&gt;是&lt;/font&gt;" style="text;html=1;strokeColor=none;fillColor=none;align=center;verticalAlign=middle;whiteSpace=wrap;rounded=0;" parent="M5g4fH2AyUE6sfYHV7MQ-1" vertex="1">
                    <mxGeometry x="90" y="280" width="20" height="20" as="geometry"/>
                </mxCell>
                <mxCell id="baRDWtBosmWGpMrJBEyP-0" value="切換程序" style="ellipse;whiteSpace=wrap;html=1;aspect=fixed;" parent="M5g4fH2AyUE6sfYHV7MQ-1" vertex="1">
                    <mxGeometry x="242.5" y="1040" width="80" height="80" as="geometry"/>
                </mxCell>
            </root>
        </mxGraphModel>
    </diagram>
</mxfile>
